<svg width="54" height="55" viewBox="0 0 54 55" fill="none" xmlns="http://www.w3.org/2000/svg">
<path d="M19.7778 8.22223V16.3526C19.7778 16.49 19.7778 16.5587 19.7611 16.6218C19.7417 16.6946 19.7062 16.7622 19.657 16.8194C19.6145 16.8688 19.5579 16.9077 19.4447 16.9855L19.4446 16.9855L3.01719 28.2637C1.75454 29.1306 1 30.5639 1 32.0955C1 35.1792 3.94801 37.408 6.91491 36.5673L20.2593 32.7864C20.5545 32.7027 20.7021 32.6609 20.8206 32.6846C20.9699 32.7146 21.0975 32.811 21.1671 32.9466C21.2222 33.0541 21.2222 33.2075 21.2222 33.5144V40.7331C21.2222 40.8973 21.2222 40.9794 21.1975 41.0551C21.1893 41.0801 21.1792 41.1045 21.1672 41.1279C21.1308 41.1987 21.0725 41.2565 20.956 41.3722L15.7107 46.5738C15.5941 46.6894 15.5358 46.7472 15.4995 46.8181C15.4875 46.8415 15.4774 46.8658 15.4692 46.8909C15.4444 46.9665 15.4444 47.0486 15.4444 47.2128V52.3833C15.4444 53.0133 15.4444 53.3282 15.6146 53.4776C15.668 53.5245 15.7308 53.5595 15.7989 53.5802C16.0154 53.6461 16.2832 53.4802 16.8186 53.1483L26.5259 47.1317C26.7303 47.005 26.8325 46.9417 26.9446 46.9292C26.9814 46.9251 27.0186 46.9251 27.0554 46.9292C27.1675 46.9417 27.2697 47.005 27.4741 47.1317L37.1814 53.1483C37.7168 53.4802 37.9846 53.6461 38.2011 53.5802C38.2692 53.5595 38.332 53.5245 38.3854 53.4776C38.5556 53.3282 38.5556 53.0133 38.5556 52.3833V47.2128C38.5556 47.0486 38.5556 46.9665 38.5308 46.8909C38.5226 46.8658 38.5125 46.8415 38.5005 46.8181C38.4642 46.7472 38.4059 46.6894 38.2893 46.5738L33.044 41.3722C32.9275 41.2565 32.8692 41.1987 32.8328 41.1279C32.8208 41.1045 32.8107 41.0801 32.8025 41.0551C32.7778 40.9794 32.7778 40.8973 32.7778 40.7331V33.5144C32.7778 33.2075 32.7778 33.0541 32.8329 32.9466C32.9025 32.811 33.03 32.7146 33.1794 32.6846C33.2979 32.6609 33.4455 32.7027 33.7407 32.7864L47.0851 36.5673C50.052 37.408 53 35.1792 53 32.0955C53 30.5639 52.2455 29.1306 50.9828 28.2637L34.5554 16.9855C34.4421 16.9077 34.3855 16.8688 34.343 16.8194C34.2938 16.7622 34.2583 16.6946 34.2389 16.6218C34.2222 16.5587 34.2222 16.49 34.2222 16.3526V8.22222C34.2222 4.2335 30.9887 1 27 1C23.0113 1 19.7778 4.23351 19.7778 8.22223Z" stroke="#54479B" stroke-width="2" stroke-linejoin="round"/>
</svg>
